<svg id="SvgjsSvg1027" width="100%" height="100%" xmlns="http://www.w3.org/2000/svg" version="1.1"
     xlink="http://www.w3.org/1999/xlink" xmlns:svgjs="http://svgjs.com/svgjs" preserveAspectRatio="xMidYMid meet"
     viewBox="1.4223636490839908e-8 1.4223636490839908e-8 300 53.44089126586914" overflow="visible">
  <defs id="SvgjsDefs1028">
    <linearGradient id="SvgjsLinearGradient5gGyY8RDS" gradientUnits="userSpaceOnUse" x1="2.246000051498441"
                    y1="97.75399565696715" x2="97.75399565696715" y2="2.2460000514984126">
      <stop id="SvgjsStop1031" stop-color="#bfddff" offset="0.05"></stop>
      <stop id="SvgjsStop1032" stop-color="#ffffff" offset="0.95"></stop>
    </linearGradient>
  </defs>
  <g id="SvgjsG1029" transform="scale(0.7796581978460643)" opacity="1">
    <g id="SvgjsG1033" class="seCHAHboA"
       transform="translate(-1.6119051243191633, -1.6119051243191562) scale(0.7176781332857873)" light-content="false"
       non-strokable="false" fill="url(#SvgjsLinearGradient5gGyY8RDS)">
      <path
        d="M50 2.246c13.188 0 25.125 5.344 33.766 13.988 8.64 8.64 13.988 20.578 13.988 33.766S92.41 75.125 83.766 83.766C75.126 92.406 63.188 97.754 50 97.754S24.875 92.41 16.234 83.766C7.594 75.126 2.246 63.188 2.246 50S7.59 24.875 16.234 16.234C24.874 7.594 36.812 2.246 50 2.246zM64.723 49.86a.705.705 0 0 1-.426-.898.705.705 0 0 1 .899-.426 8.798 8.798 0 0 1 5.3 5.297.702.702 0 0 1-.421.894.702.702 0 0 1-.895-.422 7.323 7.323 0 0 0-1.73-2.722 7.378 7.378 0 0 0-2.727-1.727zm26.73 8.203l-16.039.063a13.335 13.335 0 0 1-.672 3.043c-2.219 7.73-7.945 12.113-14.547 13.578-3.066.68-6.32.726-9.492.183-3.172-.547-6.27-1.68-9.027-3.36-7.082-4.316-11.922-12.218-10.06-22.972 1.239-7.14 5.192-13.926 10.896-18.5 5.152-4.137 11.73-6.469 19.023-5.645V5.093a46.562 46.562 0 0 0-11.531-1.445c-12.801 0-24.387 5.188-32.773 13.574C8.844 25.61 3.657 37.2 3.657 49.995c0 12.801 5.187 24.387 13.574 32.773s19.977 13.574 32.773 13.574c12.8 0 24.387-5.187 32.773-13.574a46.948 46.948 0 0 0 2.359-2.543.346.346 0 0 1 .047-.066c3.625-4.555 5.61-9.657 6.238-14.86.293-2.406.293-4.835.035-7.242zM75.48 56.73l15.797-.062c-.477-3.207-1.41-6.364-2.727-9.36-2.5-5.683-6.386-10.793-11.19-14.62-4.567-3.637-9.965-6.114-15.79-6.821-6.968-.84-13.258 1.371-18.176 5.316-5.437 4.364-9.207 10.832-10.39 17.645-1.755 10.094 2.773 17.5 9.402 21.543 2.601 1.586 5.53 2.66 8.535 3.176 3 .516 6.07.473 8.953-.164 3.742-.828 7.184-2.672 9.762-5.621a13.162 13.162 0 0 1-7.403 2.262c-3.652 0-6.96-1.48-9.355-3.875a13.19 13.19 0 0 1-3.875-9.356c0-3.652 1.48-6.96 3.875-9.355 2.394-2.395 5.703-3.875 9.355-3.875s6.961 1.48 9.356 3.875a13.195 13.195 0 0 1 3.875 9.289zM62.937 5.48v19.172c5.633.914 10.84 3.402 15.289 6.942 4.984 3.968 9.012 9.265 11.602 15.152 2.594 5.894 3.75 12.383 2.98 18.727a31.044 31.044 0 0 1-.765 4.066 46.161 46.161 0 0 0 4.308-19.543c0-12.801-5.187-24.387-13.574-32.773a46.318 46.318 0 0 0-19.84-11.746zm10.469 55.262c.262-.922.477-1.894.625-2.918 0-.012.004-.023.004-.031a11.791 11.791 0 0 0-3.422-9.36c-2.14-2.14-5.098-3.464-8.363-3.464s-6.223 1.324-8.364 3.465-3.464 5.097-3.464 8.363 1.324 6.223 3.464 8.363 5.098 3.465 8.364 3.465 6.222-1.324 8.363-3.465a11.82 11.82 0 0 0 2.79-4.418z"></path>
    </g>
    <g id="SvgjsG1034" class="text" transform="translate(240.45400366210936, 55.271998168945316) scale(1)"
       light-content="false" fill="#ffffff">
      <path
        d="M-143.91 -1.62C-143.91 -0.46 -142.85 0.12 -140.73 0.12L-139.23 0.12C-138.11 0.12 -137.3 -0.02 -136.8 -0.3C-136.3 -0.58 -136.05 -1.02 -136.05 -1.62L-136.05 -18.12L-122.91 -18.12C-122.35 -18.12 -121.94 -18.32 -121.68 -18.72C-121.42 -19.12 -121.29 -19.78 -121.29 -20.7L-121.29 -22.26C-121.29 -23.18 -121.42 -23.84 -121.68 -24.24C-121.94 -24.64 -122.35 -24.84 -122.91 -24.84L-136.05 -24.84L-136.05 -35.28L-122.25 -35.28C-121.69 -35.28 -121.28 -35.48 -121.02 -35.88C-120.76 -36.28 -120.63 -36.94 -120.63 -37.86L-120.63 -39.42C-120.63 -40.34 -120.76 -41 -121.02 -41.4C-121.28 -41.8 -121.69 -42 -122.25 -42L-141.69 -42C-142.45 -42 -143.01 -41.83 -143.37 -41.49C-143.73 -41.15 -143.91 -40.58 -143.91 -39.78Z M-114.21 -1.62C-114.21 -0.42 -113.13 0.18 -110.97 0.18L-109.47 0.18C-107.35 0.18 -106.29 -0.42 -106.29 -1.62L-106.29 -40.38C-106.29 -41.58 -107.35 -42.18 -109.47 -42.18L-110.97 -42.18C-113.13 -42.18 -114.21 -41.58 -114.21 -40.38Z M-96.21 -0.54C-95.85 -0.18 -95.29 0 -94.53 0L-82.65 0C-77.61 0 -73.81 -1.03 -71.25 -3.09C-68.69 -5.15 -67.41 -8.16 -67.41 -12.12C-67.41 -13.92 -67.85 -15.53 -68.73 -16.95C-69.61 -18.37 -70.69 -19.52 -71.97 -20.4C-73.25 -21.28 -74.47 -21.82 -75.63 -22.02L-75.69 -22.26C-73.85 -22.94 -72.3 -24.13 -71.04 -25.83C-69.78 -27.53 -69.15 -29.38 -69.15 -31.38C-69.15 -34.66 -70.3 -37.25 -72.6 -39.15C-74.9 -41.05 -78.39 -42 -83.07 -42L-94.53 -42C-95.29 -42 -95.85 -41.83 -96.21 -41.49C-96.57 -41.15 -96.75 -40.58 -96.75 -39.78L-96.75 -2.22C-96.75 -1.46 -96.57 -0.9 -96.21 -0.54ZM-83.73 -24.78L-88.89 -24.78L-88.89 -35.34L-83.73 -35.34C-79.41 -35.34 -77.25 -33.62 -77.25 -30.18C-77.25 -28.62 -77.84 -27.33 -79.02 -26.31C-80.2 -25.29 -81.77 -24.78 -83.73 -24.78ZM-81.99 -6.72L-88.89 -6.72L-88.89 -18.06L-82.95 -18.06C-80.55 -18.06 -78.71 -17.59 -77.43 -16.65C-76.15 -15.71 -75.51 -14.36 -75.51 -12.6C-75.51 -10.72 -76.07 -9.27 -77.19 -8.25C-78.31 -7.23 -79.91 -6.72 -81.99 -6.72Z M-58.29 -5.1C-55.01 -1.42 -50.31 0.42 -44.19 0.42C-38.07 0.42 -33.38 -1.42 -30.12 -5.1C-26.86 -8.78 -25.23 -14.1 -25.23 -21.06C-25.23 -28.02 -26.86 -33.32 -30.12 -36.96C-33.38 -40.6 -38.07 -42.42 -44.19 -42.42C-50.31 -42.42 -55.01 -40.59 -58.29 -36.93C-61.57 -33.27 -63.21 -27.98 -63.21 -21.06C-63.21 -14.1 -61.57 -8.78 -58.29 -5.1ZM-36.12 -10.08C-37.98 -7.56 -40.67 -6.3 -44.19 -6.3C-47.75 -6.3 -50.46 -7.56 -52.32 -10.08C-54.18 -12.6 -55.11 -16.26 -55.11 -21.06C-55.11 -25.86 -54.18 -29.5 -52.32 -31.98C-50.46 -34.46 -47.75 -35.7 -44.19 -35.7C-40.63 -35.7 -37.93 -34.46 -36.09 -31.98C-34.25 -29.5 -33.33 -25.86 -33.33 -21.06C-33.33 -16.26 -34.26 -12.6 -36.12 -10.08Z M-17.73 -1.62C-17.73 -0.46 -16.67 0.12 -14.55 0.12L-13.23 0.12C-11.11 0.12 -10.05 -0.46 -10.05 -1.62L-10.05 -24.54C-10.05 -26.34 -10.09 -27.7 -10.17 -28.62L-9.93 -28.68C-9.41 -27.56 -8.71 -26.38 -7.83 -25.14L7.89 -1.26C8.25 -0.74 8.68 -0.38 9.18 -0.18C9.68 0.02 10.35 0.12 11.19 0.12L13.11 0.12C15.23 0.12 16.29 -0.46 16.29 -1.62L16.29 -40.38C16.29 -41.54 15.23 -42.12 13.11 -42.12L11.79 -42.12C9.67 -42.12 8.61 -41.54 8.61 -40.38L8.61 -17.76C8.61 -15.96 8.65 -14.6 8.73 -13.68L8.49 -13.62C7.89 -14.86 7.19 -16.06 6.39 -17.22L-8.97 -40.68C-9.29 -41.24 -9.72 -41.62 -10.26 -41.82C-10.8 -42.02 -11.51 -42.12 -12.39 -42.12L-14.55 -42.12C-16.67 -42.12 -17.73 -41.54 -17.73 -40.38Z M21.09 -1.08C21.09 -0.28 22.19 0.12 24.39 0.12L26.07 0.12C27.55 0.12 28.43 -0.26 28.71 -1.02L31.47 -9.24L46.83 -9.24L49.59 -1.02C49.87 -0.26 50.89 0.12 52.65 0.12L54.51 0.12C56.43 0.12 57.39 -0.28 57.39 -1.08C57.39 -1.36 57.33 -1.7 57.21 -2.1L43.65 -40.98C43.37 -41.74 42.35 -42.12 40.59 -42.12L37.95 -42.12C36.15 -42.12 35.13 -41.74 34.89 -40.98L21.33 -2.1C21.17 -1.54 21.09 -1.2 21.09 -1.08ZM44.55 -15.96L33.69 -15.96L38.19 -29.16C38.43 -29.8 38.63 -30.52 38.79 -31.32C38.95 -32.12 39.05 -32.64 39.09 -32.88L39.33 -32.88C39.57 -31.32 39.85 -30.08 40.17 -29.16Z M65.34 -4.8C68.52 -1.32 73.47 0.42 80.19 0.42C82.15 0.42 84.15 0.22 86.19 -0.18C88.23 -0.58 89.89 -1.14 91.17 -1.86C92.53 -2.62 93.21 -3.46 93.21 -4.38C93.21 -4.7 93.05 -5.24 92.73 -6C92.41 -6.76 92.02 -7.43 91.56 -8.01C91.1 -8.59 90.65 -8.88 90.21 -8.88C89.97 -8.88 89.53 -8.72 88.89 -8.4C87.65 -7.8 86.35 -7.3 84.99 -6.9C83.63 -6.5 82.03 -6.3 80.19 -6.3C76.31 -6.3 73.42 -7.52 71.52 -9.96C69.62 -12.4 68.67 -16.08 68.67 -21C68.67 -26 69.62 -29.7 71.52 -32.1C73.42 -34.5 76.35 -35.7 80.31 -35.7C81.99 -35.7 83.46 -35.54 84.72 -35.22C85.98 -34.9 87.03 -34.54 87.87 -34.14C88.71 -33.74 89.19 -33.54 89.31 -33.54C89.71 -33.54 90.16 -33.84 90.66 -34.44C91.16 -35.04 91.6 -35.73 91.98 -36.51C92.36 -37.29 92.55 -37.92 92.55 -38.4C92.55 -39.04 92.05 -39.64 91.05 -40.2C89.93 -40.84 88.37 -41.37 86.37 -41.79C84.37 -42.21 82.39 -42.42 80.43 -42.42C67.19 -42.42 60.57 -35.3 60.57 -21.06C60.57 -13.7 62.16 -8.28 65.34 -4.8Z M102.48 -4.8C105.66 -1.32 110.61 0.42 117.33 0.42C119.29 0.42 121.29 0.22 123.33 -0.18C125.37 -0.58 127.03 -1.14 128.31 -1.86C129.67 -2.62 130.35 -3.46 130.35 -4.38C130.35 -4.7 130.19 -5.24 129.87 -6C129.55 -6.76 129.16 -7.43 128.7 -8.01C128.24 -8.59 127.79 -8.88 127.35 -8.88C127.11 -8.88 126.67 -8.72 126.03 -8.4C124.79 -7.8 123.49 -7.3 122.13 -6.9C120.77 -6.5 119.17 -6.3 117.33 -6.3C113.45 -6.3 110.56 -7.52 108.66 -9.96C106.76 -12.4 105.81 -16.08 105.81 -21C105.81 -26 106.76 -29.7 108.66 -32.1C110.56 -34.5 113.49 -35.7 117.45 -35.7C119.13 -35.7 120.6 -35.54 121.86 -35.22C123.12 -34.9 124.17 -34.54 125.01 -34.14C125.85 -33.74 126.33 -33.54 126.45 -33.54C126.85 -33.54 127.3 -33.84 127.8 -34.44C128.3 -35.04 128.74 -35.73 129.12 -36.51C129.5 -37.29 129.69 -37.92 129.69 -38.4C129.69 -39.04 129.19 -39.64 128.19 -40.2C127.07 -40.84 125.51 -41.37 123.51 -41.79C121.51 -42.21 119.53 -42.42 117.57 -42.42C104.33 -42.42 97.71 -35.3 97.71 -21.06C97.71 -13.7 99.3 -8.28 102.48 -4.8Z M136.41 -1.62C136.41 -0.42 137.49 0.18 139.65 0.18L141.15 0.18C143.27 0.18 144.33 -0.42 144.33 -1.62L144.33 -40.38C144.33 -41.58 143.27 -42.18 141.15 -42.18L139.65 -42.18C137.49 -42.18 136.41 -41.58 136.41 -40.38Z"></path>
    </g>
  </g>
</svg>
